<svg height="512pt" viewBox="0 0 512 512" width="512pt" xmlns="http://www.w3.org/2000/svg"><path d="m456.832031 241h-71.433593c3.890624-7.550781 6.101562-16.101562 6.101562-25.164062v-160.667969c0-30.421875-24.746094-55.167969-55.167969-55.167969h-160.664062c-30.421875 0-55.167969 24.746094-55.167969 55.167969v160.667969c0 9.0625 2.210938 17.613281 6.101562 25.164062h-71.433593c-30.421875 0-55.167969 24.746094-55.167969 55.167969v160.667969c0 30.417968 24.746094 55.164062 55.167969 55.164062h160.664062c15.820313 0 30.097657-6.703125 40.167969-17.410156 10.070312 10.707031 24.347656 17.410156 40.167969 17.410156h160.664062c30.421875 0 55.167969-24.746094 55.167969-55.164062v-160.667969c0-30.421875-24.746094-55.167969-55.167969-55.167969zm25.167969 55.167969v137.632812h-211v-137.632812c0-13.878907 11.289062-25.167969 25.167969-25.167969h25.164062v49.265625c0 8.285156 6.71875 15 15 15h80.335938c8.28125 0 15-6.714844 15-15v-49.265625h25.164062c13.878907 0 25.167969 11.289062 25.167969 25.167969zm-80.332031 9.097656h-50.335938v-34.265625h50.335938zm-120.5-275.265625v34.265625h-50.335938v-34.265625zm-105.5 0h25.164062v49.265625c0 8.285156 6.71875 15 15 15h80.335938c8.28125 0 15-6.714844 15-15v-49.265625h25.164062c13.878907 0 25.167969 11.289062 25.167969 25.167969v137.632812h-211v-137.632812c0-13.878907 11.289062-25.167969 25.167969-25.167969zm-24.179688 192.800781h209.023438c-3.03125 10.496094-12.71875 18.199219-24.179688 18.199219h-160.664062c-11.460938 0-21.148438-7.703125-24.179688-18.199219zm9.179688 48.199219v34.265625h-50.335938v-34.265625zm-105.5 0h25.164062v49.265625c0 8.285156 6.71875 15 15 15h80.335938c8.28125 0 15-6.714844 15-15v-49.265625h25.164062c13.878907 0 25.167969 11.289062 25.167969 25.167969v137.632812h-211v-137.632812c0-13.878907 11.289062-25.167969 25.167969-25.167969zm160.664062 211h-160.664062c-11.460938 0-21.148438-7.703125-24.179688-18.199219h209.023438c-3.03125 10.496094-12.71875 18.199219-24.179688 18.199219zm241 0h-160.664062c-11.460938 0-21.148438-7.703125-24.179688-18.199219h209.023438c-3.03125 10.496094-12.71875 18.199219-24.179688 18.199219zm0 0"/></svg>