<svg height="512pt" viewBox="0 0 512 512" width="512pt" xmlns="http://www.w3.org/2000/svg"><path d="m452 0h-392c-33.085938 0-60 26.914062-60 60v392c0 33.085938 26.914062 60 60 60h392c33.085938 0 60-26.914062 60-60v-392c0-33.085938-26.914062-60-60-60zm20 452c0 11.027344-8.972656 20-20 20h-118v-146h64.027344l7.460937-62h-71.488281v-67c0-17.101562 12.898438-30 30-30h45v-58c-11.84375-1.671875-34.691406-4-45-4-23.324219 0-46.703125 9.839844-64.140625 26.992188-17.964844 17.671874-27.859375 40.820312-27.859375 65.183593v66.824219h-65v62h65v146h-212c-11.027344 0-20-8.972656-20-20v-392c0-11.027344 8.972656-20 20-20h392c11.027344 0 20 8.972656 20 20zm0 0"/></svg>