<svg id="regular" enable-background="new 0 0 24 24" height="512" viewBox="0 0 24 24" width="512" xmlns="http://www.w3.org/2000/svg"><path d="m1.031 17.72c2.013 3.873 7.02 3.788 11.241 3.834 3.662 0 6.508-.235 8.497-1.381 3.911-2.254 4.167-9.125 1.489-12.556.611-2.137.13-3.553-.493-4.765-.128-.25-.386-.407-.667-.407-2.205 0-3.659.427-5.226 1.558-2.378-.501-5.101-.487-7.582.037-1.604-1.158-3.07-1.595-5.272-1.595-.283 0-.541.159-.669.411-.58 1.144-1.135 2.544-.492 4.786-2.389 3.03-2.25 7.31-.826 10.078zm2.227-9.417c.177-.201.232-.481.147-.734-.566-1.682-.343-2.685.079-3.616 1.733.058 2.833.46 4.177 1.489.179.136.407.185.627.135 2.474-.575 5.239-.589 7.586-.038.218.053.449.001.628-.135 1.307-1.004 2.393-1.396 4.131-1.452.408.898.639 1.92.078 3.589-.084.252-.03.53.145.731 1.09 1.257 1.644 2.854 1.645 4.745 0 5.974-2.68 7.037-10.228 7.037-3.508.004-8.296.079-9.908-3.023-1.244-2.416-1.336-6.19.893-8.728z"/><path d="m13.177 19.229c1.932 0 7.809 0 7.809-5.395 0-2.629-1.764-4.538-4.195-4.538-.758 0-1.448.1-2.178.205-4.238.61-4.685-.205-7.3-.205-4.287 0-5.414 5.551-2.848 8.092 2.318 2.294 6.708 1.714 8.712 1.841zm-5.864-8.434c2.584 0 2.938.848 7.514.189.676-.098 1.314-.189 1.964-.189 1.852 0 2.695 1.575 2.695 3.038 0 2.694-1.946 3.895-6.259 3.896-1.661-.11-5.869.412-7.707-1.408-1.629-1.613-1.107-5.526 1.793-5.526z"/><path d="m16.365 16.829c1.034 0 1.999-.9 1.999-2.496 0-3.321-4-3.32-4 0 0 1.639 1.007 2.496 2.001 2.496zm-.002-3.492c.243 0 .501.349.501.996 0 1.322-1 1.303-1 0 0-.385.139-.996.499-.996z"/><path d="m7.754 16.83c2.667 0 2.669-4.992-.002-4.992-2.668-.001-2.669 4.992.002 4.992zm.499-2.497c0 1.321-1 1.304-1 0 0-1.315 1-1.333 1 0z"/></svg>