<svg id="Capa_1" enable-background="new 0 0 511.989 511.989" height="512" viewBox="0 0 511.989 511.989" width="512" xmlns="http://www.w3.org/2000/svg"><g><path d="m470.994 330c0-24.146-17.205-44.348-40-48.994v-54.006c0-4.92-2.412-9.526-6.456-12.329s-9.206-3.445-13.811-1.716l-28.629 10.736c-18.8-19.545-41.652-34.266-66.694-43.303 24.608-18.234 40.59-47.478 40.59-80.388 0-55.141-44.859-100-100-100s-100 44.859-100 100c0 32.91 15.982 62.154 40.59 80.388-25.043 9.038-47.894 23.759-66.694 43.303l-28.629-10.736c-4.606-1.729-9.768-1.087-13.811 1.716-4.044 2.803-6.456 7.409-6.456 12.329v54.006c-22.795 4.646-40 24.847-40 48.994s17.205 44.348 40 48.994v58.006c0 6.253 3.879 11.85 9.733 14.045l160 60c3.374 1.258 7.159 1.258 10.533 0l160-60c5.854-2.195 9.733-7.792 9.733-14.045v-58.006c22.796-4.646 40.001-24.848 40.001-48.994zm-285-230c0-38.598 31.402-70 70-70s70 31.402 70 70-31.402 70-70 70-70-31.402-70-70zm70 100c35.143 0 68.709 12.701 94.899 35.393l-94.899 35.587-94.899-35.587c26.191-22.692 59.757-35.393 94.899-35.393zm-185 130c0-11.028 8.972-20 20-20h10v40h-10c-11.028 0-20-8.972-20-20zm40 49.497c11.397-2.323 20-12.424 20-24.497v-50c0-12.073-8.603-22.174-20-24.497v-31.858l130 48.75v177.961l-130-48.75zm160 95.858v-177.96l130-48.75v31.858c-11.397 2.323-20 12.424-20 24.497v50c0 12.073 8.603 22.174 20 24.497v47.108zm150-125.355h-10v-40h10c11.028 0 20 8.972 20 20s-8.971 20-20 20z"/></g></svg>