<svg height="512pt" viewBox="0 0 512 512" width="512pt" xmlns="http://www.w3.org/2000/svg"><path d="m437.019531 74.980469c-48.351562-48.351563-112.640625-74.980469-181.019531-74.980469s-132.667969 26.628906-181.019531 74.980469c-48.351563 48.351562-74.980469 112.640625-74.980469 181.019531s26.628906 132.667969 74.980469 181.019531c48.351562 48.351563 112.640625 74.980469 181.019531 74.980469s132.667969-26.628906 181.019531-74.980469c48.351563-48.351562 74.980469-112.640625 74.980469-181.019531s-26.628906-132.667969-74.980469-181.019531zm-181.019531 397.019531c-119.101562 0-216-96.898438-216-216s96.898438-216 216-216 216 96.898438 216 216-96.898438 216-216 216zm123.675781-251c-9.285156 0-17.730469 3.363281-23.917969 9.277344-20.972656-14.996094-48.832031-25.308594-80.011718-28.429688l12.601562-59.707031 38.722656 9.085937c4.894532 9.929688 15.117188 16.773438 26.921876 16.773438 16.5625 0 30.007812-13.796875 30.007812-30 0-16.550781-13.445312-30-30.007812-30-5.914063 0-11.425782 1.722656-16.074219 4.683594l-50.394531-11.820313c-7.929688-1.859375-16.078126-.476562-22.945313 3.890625-6.867187 4.367188-11.578125 11.160156-13.257813 19.125l-16.597656 78.644532c-29.757812 3.484374-56.320312 13.554687-76.480468 28.035156-6.1875-5.914063-14.632813-9.558594-23.917969-9.558594-19.132813 0-34.324219 15.46875-34.324219 34.335938 0 14.070312 8.4375 25.894531 20.261719 31.25-.566407 3.371093-.847657 6.753906-.847657 10.414062 0 52.921875 61.621094 96 137.589844 96s137.585938-42.792969 137.585938-96c0-3.378906-.28125-7.039062-.84375-10.414062 11.816406-5.355469 20.253906-17.460938 20.253906-31.535157 0-19.144531-15.472656-34.050781-34.324219-34.050781zm-200.675781 46.996094c0-12.6875 10.308594-22.996094 23.003906-22.996094 12.6875 0 22.996094 10.308594 22.996094 22.996094s-10.308594 23-22.996094 23c-12.695312.261718-23.003906-10.3125-23.003906-23zm131.644531 78.199218c-2.113281 1.34375-21.613281 13.121094-54.363281 13.121094-.09375 0-.183594-.003906-.28125-.003906-.09375 0-.1875.003906-.28125.003906-32.75 0-52.246094-11.777344-54.363281-13.121094-8.390625-5.328124-10.878907-16.449218-5.550781-24.839843 5.328124-8.394531 16.453124-10.878907 24.84375-5.550781.113281.070312 11.816406 6.910156 32.375 7.472656.382812.007812.765624.019531 1.15625.023437.066406 0 .140624 0 .210937.003907.507813.003906 1.019531.007812 1.535156.007812 6.726563-.015625 13.601563-.875 19.917969-2.0625 9.972656-2.207031 15.429688-5.398438 15.507812-5.445312 8.390626-5.328126 19.515626-2.84375 24.84375 5.546874 5.328126 8.394532 2.84375 19.515626-5.550781 24.84375zm-.648437-56.191406c-12.6875 0-22.996094-10.3125-22.996094-23 0-12.691406 10.308594-23 22.996094-23 12.695312 0 23.003906 10.308594 23.003906 23 0 12.421875-10.308594 23-23.003906 23zm0 0"/></svg>