<svg height="512pt" viewBox="0 -48 512 512" width="512pt" xmlns="http://www.w3.org/2000/svg"><path d="m512 49c-19.171875 8.496094-40.175781 13.539062-61 16 21.929688-13.128906 38.160156-33.675781 46-58-20.621094 12.234375-42.332031 21.363281-65.855469 26-20.328125-21.617188-47.640625-33-75.144531-33-27 0-52.796875 9.105469-73.480469 28.558594-21.34375 20.070312-33.476562 47.835937-33.519531 76.441406-.011719 7.960938 1.285156 15.984375 3.128906 23.925781-84.460937-4.234375-162.789062-44.300781-216.128906-109.925781-9.667969 16.644531-15.011719 35.027344-15 53 .023438 33.851562 16.847656 66.863281 47 87-16.71875-.496094-33.390625-3.855469-48-12v1.914062c.015625 50.003907 35.984375 91.183594 85 101.085938-8.660156 2.363281-19.890625 4.035156-28.910156 4.035156-.03125 0-.0625 0-.089844 0-7.050781-.011718-14.101562-.707031-21-2.035156 13.761719 42.792969 56.058594 74.15625 101 75-37.195312 29.234375-95 43-130.992188 43-8.359374-.015625-16.710937-.007812-25.007812-1 47.925781 30.753906 103.675781 47 160.613281 47h.398438v.082031c191.988281 0 298.988281-160.117187 298.988281-298.933593 0-4.546876-.691406-9.644532-1-14.148438 20.558594-14.871094 38.894531-32.90625 53-54zm-109.144531 159.296875c-11.78125 31.226563-28.710938 59.445313-50.316407 83.875-22.910156 25.902344-50.046874 46.238281-80.648437 60.4375-31.488281 14.609375-66.261719 22.460937-103.460937 23.378906l-7.488282.011719h-.328125c-2.164062 0-4.324219-.027344-6.480469-.082031 9.410157-5.195313 18.367188-11.011719 26.582032-17.46875 20.648437-19.179688 29.863281-43.476563 33.285156-70.367188 0 0-16.832031 2.046875-36 1.917969-14.851562-.101562-31.101562-1.320312-42.023438-6.988281 27.179688-12.21875 41.464844-32.476563 47.277344-58.011719-23.253906 2-77.253906-10-96.625-25.429688 21.371094-7.570312 41.371094-23.570312 49.371094-36.570312 0 0-38-18-64.824219-56.589844 52.101563 37.175782 114.148438 59.21875 178.953125 62.464844l52.871094 2.125-10.9375-46.9375-2.042969-9.308594c-.6875-3.773437-1.023437-6.972656-1.019531-9.695312.023438-17.617188 7.652344-34.882813 20.921875-47.363282 12.484375-11.742187 27.988281-17.695312 46.078125-17.695312 13.363281 0 26.558594 4.570312 37.511719 12.796875 17.488281 15.203125 26.488281 35.203125 26.488281 64.351563 0 29.910156-5.929688 61.429687-17.144531 91.148437zm0 0"/></svg>