<svg height="512pt" viewBox="0 0 512 512" width="512pt" xmlns="http://www.w3.org/2000/svg"><path d="m213.332031 512c-44.09375 0-80-35.882812-80-80 0-8.832031 7.167969-16 16-16s16 7.167969 16 16c0 26.476562 21.546875 48 48 48s48-21.523438 48-48c0-8.832031 7.167969-16 16-16s16 7.167969 16 16c0 44.117188-35.902343 80-80 80zm0 0"/><path d="m389.332031 448h-352c-20.585937 0-37.332031-16.746094-37.332031-37.332031 0-10.925781 4.757812-21.269531 13.054688-28.375.535156-.46875 1.109374-.894531 1.707031-1.28125 31.316406-27.328125 49.238281-66.644531 49.238281-108.160157v-59.519531c0-69.480469 47.082031-129.128906 114.496094-145.066406 8.617187-1.984375 17.238281 3.285156 19.265625 11.90625 2.023437 8.597656-3.308594 17.214844-11.882813 19.242187-52.929687 12.5-89.878906 59.347657-89.878906 113.917969v59.519531c0 51.542969-22.59375 100.3125-61.929688 133.78125-.320312.257813-.597656.492188-.941406.726563-.574218.726563-1.128906 1.835937-1.128906 3.308594 0 2.898437 2.433594 5.332031 5.332031 5.332031h352c2.902344 0 5.335938-2.433594 5.335938-5.332031 0-1.496094-.554688-2.582031-1.152344-3.308594-.320313-.234375-.621094-.46875-.917969-.726563-19.113281-16.296874-34.199218-35.964843-44.820312-58.472656-3.796875-7.980468-.386719-17.515625 7.613281-21.3125 8.066406-3.796875 17.515625-.339844 21.292969 7.636719 8.445312 17.835937 20.285156 33.496094 35.261718 46.59375.554688.382813 1.132813.789063 1.621094 1.214844 8.34375 7.105469 13.101563 17.449219 13.101563 28.375 0 20.585937-16.746094 37.332031-37.335938 37.332031zm0 0"/><path d="m373.332031 277.332031c-76.457031 0-138.664062-62.207031-138.664062-138.664062 0-76.460938 62.207031-138.667969 138.664062-138.667969 76.460938 0 138.667969 62.207031 138.667969 138.667969 0 76.457031-62.207031 138.664062-138.667969 138.664062zm0-245.332031c-58.816406 0-106.664062 47.851562-106.664062 106.667969 0 58.816406 47.847656 106.664062 106.664062 106.664062 58.816407 0 106.667969-47.847656 106.667969-106.664062 0-58.816407-47.851562-106.667969-106.667969-106.667969zm0 0"/><path d="m378.667969 202.667969c-8.832031 0-16-7.167969-16-16v-69.335938h-10.667969c-8.832031 0-16-7.167969-16-16s7.167969-16 16-16h26.667969c8.832031 0 16 7.167969 16 16v85.335938c0 8.832031-7.167969 16-16 16zm0 0"/></svg>