<?xml version="1.0" encoding="iso-8859-1"?>
<!-- Generator: Adobe Illustrator 18.1.1, SVG Export Plug-In . SVG Version: 6.00 Build 0)  -->
<svg version="1.1" id="Capa_1" xmlns="http://www.w3.org/2000/svg" xmlns:xlink="http://www.w3.org/1999/xlink" x="0px" y="0px"
	 viewBox="0 0 612 612" style="enable-background:new 0 0 612 612;" xml:space="preserve">
<g>
	<g>
		<path d="M306,0C137.272,0,0,137.27,0,305.997C0,474.727,137.272,612,306,612s306-137.273,306-306.003C612,137.27,474.73,0,306,0z
			 M306,576.657c-149.24,0-270.657-121.418-270.657-270.66C35.343,156.759,156.76,35.343,306,35.343
			s270.657,121.416,270.657,270.655C576.657,455.24,455.24,576.657,306,576.657z"/>
		<path d="M474.47,144.734c-4.623-8.599-15.336-11.818-23.933-7.197L251.64,244.485c-3.053,1.642-5.556,4.144-7.197,7.198
			L137.538,450.536c-3.782,7.035-2.309,15.489,3.063,20.861c1.191,1.193,2.574,2.232,4.137,3.07
			c5.313,2.857,11.436,2.71,16.428,0.155l0.003,0.004l0.075-0.04c0.072-0.037,0.143-0.077,0.214-0.115l198.995-106.87
			c3.054-1.64,5.556-4.142,7.2-7.197l106.477-198.361c0.233-0.401,0.455-0.806,0.655-1.222l0.144-0.267l-0.018-0.006
			C477.174,155.671,477.211,149.833,474.47,144.734z M196.403,415.684l67.933-126.361l58.418,58.42L196.403,415.684z
			 M347.76,322.764l-58.421-58.421l126.351-67.94"/>
	</g>
</g>
<g>
</g>
<g>
</g>
<g>
</g>
<g>
</g>
<g>
</g>
<g>
</g>
<g>
</g>
<g>
</g>
<g>
</g>
<g>
</g>
<g>
</g>
<g>
</g>
<g>
</g>
<g>
</g>
<g>
</g>
</svg>
