<?xml version="1.0" encoding="iso-8859-1"?>
<!-- Generator: Adobe Illustrator 19.0.0, SVG Export Plug-In . SVG Version: 6.00 Build 0)  -->
<svg version="1.1" id="Capa_1" xmlns="http://www.w3.org/2000/svg" xmlns:xlink="http://www.w3.org/1999/xlink" x="0px" y="0px"
	 viewBox="0 0 480.025 480.025" style="enable-background:new 0 0 480.025 480.025;" xml:space="preserve">
<g>
	<g>
		<path d="M433.348,136.012h-1.336v-136h-208v136h-15.416c-5.872-0.012-11.594-1.848-16.376-5.256l-37.68-26.568
			c-7.477-5.312-16.42-8.169-25.592-8.176H45.836c-25.891,0.642-46.383,22.107-45.824,48v287c-0.595,26.398,20.269,48.306,46.664,49
			h386.672c26.395-0.694,47.259-22.602,46.664-49v-246C480.608,158.615,459.744,136.706,433.348,136.012z M240.012,16.012h176v120
			h-16v-24h-24v24h-96v-24h-24v24h-16V16.012z M433.348,464.012H46.676c-17.56-0.69-31.263-15.437-30.664-33v-287
			c-0.563-17.058,12.769-31.362,29.824-32h83.112c5.872,0.01,11.595,1.847,16.376,5.256l37.68,26.568
			c7.478,5.31,16.42,8.167,25.592,8.176h224.752c17.56,0.69,31.263,15.437,30.664,33v246
			C464.611,448.576,450.908,463.323,433.348,464.012z"/>
	</g>
</g>
<g>
	<g>
		<path d="M244.012,168.012c-77.32,0-140,62.68-140,140s62.68,140,140,140s140-62.68,140-140
			C383.92,230.731,321.294,168.105,244.012,168.012z M244.012,432.012c-68.483,0-124-55.517-124-124s55.517-124,124-124
			s124,55.517,124,124C367.937,376.465,312.465,431.937,244.012,432.012z"/>
	</g>
</g>
<g>
	<g>
		<path d="M310.904,303.944c-0.687-1.163-1.657-2.132-2.819-2.819l-88-52c-3.803-2.249-8.709-0.989-10.958,2.814
			c-0.73,1.234-1.114,2.641-1.114,4.074v104c-0.001,4.418,3.58,8.001,7.998,8.002c1.433,0,2.84-0.384,4.074-1.114l88-52
			C311.889,312.653,313.151,307.748,310.904,303.944z M224.012,345.996v-76l64.272,38.016L224.012,345.996z"/>
	</g>
</g>
<g>
	<g>
		<rect x="256.012" y="32.012" width="24" height="24"/>
	</g>
</g>
<g>
	<g>
		<rect x="256.012" y="72.012" width="24" height="24"/>
	</g>
</g>
<g>
	<g>
		<rect x="376.012" y="32.012" width="24" height="24"/>
	</g>
</g>
<g>
	<g>
		<rect x="376.012" y="72.012" width="24" height="24"/>
	</g>
</g>
<g>
</g>
<g>
</g>
<g>
</g>
<g>
</g>
<g>
</g>
<g>
</g>
<g>
</g>
<g>
</g>
<g>
</g>
<g>
</g>
<g>
</g>
<g>
</g>
<g>
</g>
<g>
</g>
<g>
</g>
</svg>
