<svg height="512pt" viewBox="0 0 512 512" width="512pt" xmlns="http://www.w3.org/2000/svg"><path d="m396.65625 167.089844c-12.9375-7.058594-27.996094-9.226563-42.398438-6.101563l-30.984374 6.722657 5.148437-52.019532c2.074219-20.945312-10.386719-40.324218-30.308594-47.121094-11.625-3.96875-24.058593-3.085937-35.007812 2.480469-10.949219 5.566407-18.984375 15.09375-22.625 26.824219l-17.242188 55.527344c-4.238281 13.65625-14.777343 24.753906-28.199219 29.6875l-10.675781 3.925781h-70.734375c-8.28125 0-15 6.714844-15 15v160.371094c0 3.976562 1.582032 7.792969 4.394532 10.605469s6.628906 4.394531 10.609374 4.394531l60.285157-.007813 149.527343 18.910156c4.53125.574219 9.054688.855469 13.558594.855469 22.863282 0 45.070313-7.3125 63.671875-21.164062l3.242188-2.417969c15.476562-11.523438 24.714843-29.921875 24.714843-49.214844v-103.386718c-.003906-22.46875-12.253906-43.109376-31.976562-53.871094zm-268.027344 49.925781h42.226563l-9.894531 130.367187-32.328126.003907v-130.371094zm270 107.335937c0 9.859376-4.722656 19.265626-12.632812 25.15625l-3.242188 2.414063c-16.011718 11.925781-35.730468 17.109375-55.546875 14.605469l-136.304687-17.238282 6.519531-85.910156 3.839844-50.613281 4.128906-1.519531c22.128906-8.132813 39.511719-26.433594 46.5-48.945313l17.242187-55.53125c1.21875-3.925781 3.90625-7.113281 7.570313-8.976562 3.667969-1.863281 7.828125-2.160157 11.722656-.832031 6.667969 2.277343 10.839844 8.761718 10.144531 15.773437l-7.179687 72.523437c-.476563 4.769532 1.363281 9.484376 4.945313 12.675782 3.578124 3.1875 8.46875 4.472656 13.160156 3.460937l51.121094-11.089843c7.363281-1.59375 15.058593-.488282 21.671874 3.121093 10.078126 5.5 16.339844 16.050781 16.339844 27.53125zm0 0"/><path d="m437.019531 74.980469c-48.351562-48.351563-112.640625-74.980469-181.019531-74.980469s-132.667969 26.628906-181.019531 74.980469c-48.351563 48.351562-74.980469 112.640625-74.980469 181.019531s26.628906 132.667969 74.980469 181.019531c48.351562 48.351563 112.640625 74.980469 181.019531 74.980469s132.667969-26.628906 181.019531-74.980469c48.351563-48.351562 74.980469-112.640625 74.980469-181.019531s-26.628906-132.667969-74.980469-181.019531zm-21.214843 340.824219c-42.683594 42.6875-99.4375 66.195312-159.804688 66.195312s-117.121094-23.507812-159.804688-66.195312c-42.6875-42.683594-66.195312-99.4375-66.195312-159.804688s23.507812-117.121094 66.195312-159.804688c42.683594-42.6875 99.4375-66.195312 159.804688-66.195312s117.121094 23.507812 159.804688 66.195312c42.6875 42.683594 66.195312 99.4375 66.195312 159.804688s-23.507812 117.121094-66.195312 159.804688zm0 0"/></svg>