<?xml version="1.0" standalone="no"?>
<!DOCTYPE svg PUBLIC "-//W3C//DTD SVG 20010904//EN"
 "http://www.w3.org/TR/2001/REC-SVG-20010904/DTD/svg10.dtd">
<svg version="1.0" xmlns="http://www.w3.org/2000/svg"
 width="512.000000pt" height="512.000000pt" viewBox="0 0 512.000000 512.000000"
 preserveAspectRatio="xMidYMid meet">

<g transform="translate(0.000000,512.000000) scale(0.100000,-0.100000)"
fill="#000000" stroke="none">
<path d="M4442 4964 c-66 -17 -101 -35 -177 -89 -33 -24 -533 -517 -1112
-1097 -832 -833 -1056 -1062 -1072 -1098 -25 -58 -95 -538 -87 -598 13 -98 94
-189 193 -218 57 -17 61 -16 313 20 140 20 273 41 295 48 34 10 201 172 1133
1102 1081 1079 1093 1092 1134 1172 77 155 76 301 -2 461 -113 231 -383 361
-618 297z m234 -278 c98 -45 162 -134 171 -236 11 -114 69 -50 -1095 -1212
l-1057 -1056 -215 -30 c-118 -17 -216 -30 -217 -28 -2 1 11 102 29 223 l31
221 1051 1050 c785 784 1062 1054 1096 1071 62 29 140 28 206 -3z"/>
<path d="M152 4684 c-29 -14 -67 -44 -86 -66 -71 -83 -66 91 -66 -2188 0
-2320 -7 -2124 79 -2210 88 -88 -156 -80 2496 -78 2226 3 2352 4 2382 21 57
31 105 80 129 132 l24 50 0 1195 c0 1152 -1 1196 -19 1226 -50 82 -173 81
-228 -3 -17 -25 -18 -98 -21 -1190 l-2 -1163 -2285 0 -2285 0 0 2015 0 2015
1163 2 c1101 3 1164 4 1190 21 64 41 84 123 47 184 -41 67 45 63 -1273 63
l-1193 0 -52 -26z"/>
</g>
</svg>
